<mxfile host="app.diagrams.net" modified="2022-12-10T07:46:36.820Z" agent="5.0 (Windows NT 10.0; Win64; x64) AppleWebKit/537.36 (KHTML, like Gecko) Chrome/108.0.0.0 Safari/537.36 Edg/108.0.1462.42" etag="BZ1bxpjgSQIwBfano6Xn" version="20.6.2" type="github">
  <diagram id="prtHgNgQTEPvFCAcTncT" name="Page-1">
    <mxGraphModel dx="918" dy="509" grid="1" gridSize="10" guides="1" tooltips="1" connect="1" arrows="1" fold="1" page="1" pageScale="1" pageWidth="827" pageHeight="1169" math="0" shadow="0">
      <root>
        <mxCell id="0" />
        <mxCell id="1" parent="0" />
        <mxCell id="DM50Ut-zgRw8RZW4MAb7-1" value="博客平台" style="swimlane;childLayout=stackLayout;resizeParent=1;resizeParentMax=0;startSize=20;html=1;" vertex="1" parent="1">
          <mxGeometry x="260" y="90" width="360" height="950" as="geometry">
            <mxRectangle x="270.00000000000045" y="90" width="70" height="30" as="alternateBounds" />
          </mxGeometry>
        </mxCell>
        <mxCell id="DM50Ut-zgRw8RZW4MAb7-2" value="用户" style="swimlane;startSize=20;html=1;" vertex="1" parent="DM50Ut-zgRw8RZW4MAb7-1">
          <mxGeometry y="20" width="120" height="930" as="geometry" />
        </mxCell>
        <mxCell id="DM50Ut-zgRw8RZW4MAb7-8" value="" style="edgeStyle=orthogonalEdgeStyle;rounded=0;orthogonalLoop=1;jettySize=auto;html=1;entryX=0.5;entryY=0;entryDx=0;entryDy=0;" edge="1" parent="DM50Ut-zgRw8RZW4MAb7-2" source="DM50Ut-zgRw8RZW4MAb7-5" target="DM50Ut-zgRw8RZW4MAb7-10">
          <mxGeometry relative="1" as="geometry">
            <mxPoint x="59.999999999999545" y="125" as="targetPoint" />
          </mxGeometry>
        </mxCell>
        <mxCell id="DM50Ut-zgRw8RZW4MAb7-5" value="" style="ellipse;html=1;shape=startState;fillColor=#000000;strokeColor=#ff0000;" vertex="1" parent="DM50Ut-zgRw8RZW4MAb7-2">
          <mxGeometry x="44.999999999999545" y="30" width="30" height="30" as="geometry" />
        </mxCell>
        <mxCell id="DM50Ut-zgRw8RZW4MAb7-10" value="进入网站" style="rounded=1;whiteSpace=wrap;html=1;" vertex="1" parent="DM50Ut-zgRw8RZW4MAb7-2">
          <mxGeometry x="15" y="130" width="90" height="40" as="geometry" />
        </mxCell>
        <mxCell id="DM50Ut-zgRw8RZW4MAb7-11" value="浏览内容" style="rounded=1;whiteSpace=wrap;html=1;" vertex="1" parent="DM50Ut-zgRw8RZW4MAb7-2">
          <mxGeometry x="15" y="220" width="90" height="40" as="geometry" />
        </mxCell>
        <mxCell id="DM50Ut-zgRw8RZW4MAb7-14" value="" style="endArrow=classic;html=1;rounded=0;exitX=0.5;exitY=1;exitDx=0;exitDy=0;entryX=0.5;entryY=0;entryDx=0;entryDy=0;" edge="1" parent="DM50Ut-zgRw8RZW4MAb7-2" source="DM50Ut-zgRw8RZW4MAb7-10" target="DM50Ut-zgRw8RZW4MAb7-11">
          <mxGeometry width="50" height="50" relative="1" as="geometry">
            <mxPoint x="39.999999999999545" y="230" as="sourcePoint" />
            <mxPoint x="89.99999999999955" y="180" as="targetPoint" />
          </mxGeometry>
        </mxCell>
        <mxCell id="DM50Ut-zgRw8RZW4MAb7-17" value="撰写文章/评论" style="rounded=1;whiteSpace=wrap;html=1;" vertex="1" parent="DM50Ut-zgRw8RZW4MAb7-2">
          <mxGeometry x="15" y="310" width="90" height="40" as="geometry" />
        </mxCell>
        <mxCell id="DM50Ut-zgRw8RZW4MAb7-18" value="" style="endArrow=classic;html=1;rounded=0;exitX=0.5;exitY=1;exitDx=0;exitDy=0;entryX=0.5;entryY=0;entryDx=0;entryDy=0;" edge="1" parent="DM50Ut-zgRw8RZW4MAb7-2" source="DM50Ut-zgRw8RZW4MAb7-11" target="DM50Ut-zgRw8RZW4MAb7-17">
          <mxGeometry width="50" height="50" relative="1" as="geometry">
            <mxPoint x="39.999999999999545" y="320" as="sourcePoint" />
            <mxPoint x="89.99999999999955" y="270" as="targetPoint" />
          </mxGeometry>
        </mxCell>
        <mxCell id="DM50Ut-zgRw8RZW4MAb7-27" value="登录" style="rounded=1;whiteSpace=wrap;html=1;" vertex="1" parent="DM50Ut-zgRw8RZW4MAb7-2">
          <mxGeometry x="15" y="455" width="90" height="40" as="geometry" />
        </mxCell>
        <mxCell id="DM50Ut-zgRw8RZW4MAb7-32" value="文章撰写" style="rounded=1;whiteSpace=wrap;html=1;" vertex="1" parent="DM50Ut-zgRw8RZW4MAb7-2">
          <mxGeometry x="15" y="540" width="90" height="40" as="geometry" />
        </mxCell>
        <mxCell id="DM50Ut-zgRw8RZW4MAb7-33" value="" style="endArrow=classic;html=1;rounded=0;fontSize=8;exitX=0.5;exitY=1;exitDx=0;exitDy=0;entryX=0.5;entryY=0;entryDx=0;entryDy=0;" edge="1" parent="DM50Ut-zgRw8RZW4MAb7-2" source="DM50Ut-zgRw8RZW4MAb7-27" target="DM50Ut-zgRw8RZW4MAb7-32">
          <mxGeometry width="50" height="50" relative="1" as="geometry">
            <mxPoint x="140" y="550" as="sourcePoint" />
            <mxPoint x="190" y="500" as="targetPoint" />
          </mxGeometry>
        </mxCell>
        <mxCell id="DM50Ut-zgRw8RZW4MAb7-35" value="发布文章" style="rounded=1;whiteSpace=wrap;html=1;" vertex="1" parent="DM50Ut-zgRw8RZW4MAb7-2">
          <mxGeometry x="15" y="640" width="90" height="40" as="geometry" />
        </mxCell>
        <mxCell id="DM50Ut-zgRw8RZW4MAb7-41" value="" style="endArrow=classic;html=1;rounded=0;fontSize=8;exitX=0.5;exitY=1;exitDx=0;exitDy=0;" edge="1" parent="DM50Ut-zgRw8RZW4MAb7-2" source="DM50Ut-zgRw8RZW4MAb7-32" target="DM50Ut-zgRw8RZW4MAb7-35">
          <mxGeometry width="50" height="50" relative="1" as="geometry">
            <mxPoint x="140" y="680" as="sourcePoint" />
            <mxPoint x="190" y="630" as="targetPoint" />
          </mxGeometry>
        </mxCell>
        <mxCell id="DM50Ut-zgRw8RZW4MAb7-54" value="文章显示" style="rounded=1;whiteSpace=wrap;html=1;" vertex="1" parent="DM50Ut-zgRw8RZW4MAb7-2">
          <mxGeometry x="15" y="800" width="90" height="40" as="geometry" />
        </mxCell>
        <mxCell id="DM50Ut-zgRw8RZW4MAb7-58" value="" style="ellipse;html=1;shape=endState;fillColor=#000000;strokeColor=#ff0000;fontSize=8;" vertex="1" parent="DM50Ut-zgRw8RZW4MAb7-2">
          <mxGeometry x="45" y="890" width="30" height="30" as="geometry" />
        </mxCell>
        <mxCell id="DM50Ut-zgRw8RZW4MAb7-59" value="" style="endArrow=classic;html=1;rounded=0;fontSize=8;exitX=0.5;exitY=1;exitDx=0;exitDy=0;entryX=0.5;entryY=0;entryDx=0;entryDy=0;" edge="1" parent="DM50Ut-zgRw8RZW4MAb7-2" source="DM50Ut-zgRw8RZW4MAb7-54" target="DM50Ut-zgRw8RZW4MAb7-58">
          <mxGeometry width="50" height="50" relative="1" as="geometry">
            <mxPoint x="140" y="910" as="sourcePoint" />
            <mxPoint x="190" y="860" as="targetPoint" />
          </mxGeometry>
        </mxCell>
        <mxCell id="DM50Ut-zgRw8RZW4MAb7-3" value="系统" style="swimlane;startSize=20;html=1;" vertex="1" parent="DM50Ut-zgRw8RZW4MAb7-1">
          <mxGeometry x="120" y="20" width="120" height="930" as="geometry" />
        </mxCell>
        <mxCell id="DM50Ut-zgRw8RZW4MAb7-19" value="判断用户是否登录" style="rounded=1;whiteSpace=wrap;html=1;" vertex="1" parent="DM50Ut-zgRw8RZW4MAb7-3">
          <mxGeometry x="15" y="310" width="90" height="40" as="geometry" />
        </mxCell>
        <mxCell id="DM50Ut-zgRw8RZW4MAb7-20" value="" style="rhombus;whiteSpace=wrap;html=1;" vertex="1" parent="DM50Ut-zgRw8RZW4MAb7-3">
          <mxGeometry x="40" y="390" width="40" height="40" as="geometry" />
        </mxCell>
        <mxCell id="DM50Ut-zgRw8RZW4MAb7-21" value="" style="endArrow=classic;html=1;rounded=0;exitX=0.5;exitY=1;exitDx=0;exitDy=0;" edge="1" parent="DM50Ut-zgRw8RZW4MAb7-3" source="DM50Ut-zgRw8RZW4MAb7-19" target="DM50Ut-zgRw8RZW4MAb7-20">
          <mxGeometry width="50" height="50" relative="1" as="geometry">
            <mxPoint x="49.999999999999545" y="420" as="sourcePoint" />
            <mxPoint x="99.99999999999955" y="370" as="targetPoint" />
          </mxGeometry>
        </mxCell>
        <mxCell id="DM50Ut-zgRw8RZW4MAb7-22" value="跳转登录界面" style="rounded=1;whiteSpace=wrap;html=1;" vertex="1" parent="DM50Ut-zgRw8RZW4MAb7-3">
          <mxGeometry x="27.5" y="460" width="65" height="30" as="geometry" />
        </mxCell>
        <mxCell id="DM50Ut-zgRw8RZW4MAb7-23" value="" style="endArrow=classic;html=1;rounded=0;exitX=1;exitY=0.5;exitDx=0;exitDy=0;edgeStyle=orthogonalEdgeStyle;entryX=0.5;entryY=0;entryDx=0;entryDy=0;" edge="1" parent="DM50Ut-zgRw8RZW4MAb7-3" source="DM50Ut-zgRw8RZW4MAb7-20" target="DM50Ut-zgRw8RZW4MAb7-22">
          <mxGeometry width="50" height="50" relative="1" as="geometry">
            <mxPoint x="79.99999999999955" y="440" as="sourcePoint" />
            <mxPoint x="19.999999999999545" y="450" as="targetPoint" />
            <Array as="points">
              <mxPoint x="110" y="410" />
              <mxPoint x="110" y="440" />
              <mxPoint x="60" y="440" />
            </Array>
          </mxGeometry>
        </mxCell>
        <mxCell id="DM50Ut-zgRw8RZW4MAb7-28" value="" style="endArrow=classic;html=1;rounded=0;entryX=0.987;entryY=0.629;entryDx=0;entryDy=0;entryPerimeter=0;" edge="1" parent="DM50Ut-zgRw8RZW4MAb7-3" target="DM50Ut-zgRw8RZW4MAb7-27">
          <mxGeometry width="50" height="50" relative="1" as="geometry">
            <mxPoint x="29.999999999999545" y="480" as="sourcePoint" />
            <mxPoint x="-10.000000000000455" y="480" as="targetPoint" />
            <Array as="points">
              <mxPoint x="19.999999999999545" y="480" />
            </Array>
          </mxGeometry>
        </mxCell>
        <mxCell id="DM50Ut-zgRw8RZW4MAb7-29" value="跳转文章撰写界面/评论界面" style="rounded=1;whiteSpace=wrap;html=1;" vertex="1" parent="DM50Ut-zgRw8RZW4MAb7-3">
          <mxGeometry x="23.75" y="530" width="72.5" height="50" as="geometry" />
        </mxCell>
        <mxCell id="DM50Ut-zgRw8RZW4MAb7-30" value="" style="endArrow=classic;html=1;rounded=0;fontSize=8;edgeStyle=orthogonalEdgeStyle;entryX=0.396;entryY=-0.136;entryDx=0;entryDy=0;entryPerimeter=0;" edge="1" parent="DM50Ut-zgRw8RZW4MAb7-3" target="DM50Ut-zgRw8RZW4MAb7-29">
          <mxGeometry width="50" height="50" relative="1" as="geometry">
            <mxPoint x="39.999999999999545" y="410" as="sourcePoint" />
            <mxPoint x="19.999999999999545" y="510" as="targetPoint" />
            <Array as="points">
              <mxPoint x="10" y="410" />
              <mxPoint x="10" y="500" />
              <mxPoint x="53" y="500" />
            </Array>
          </mxGeometry>
        </mxCell>
        <mxCell id="DM50Ut-zgRw8RZW4MAb7-36" value="确认提交" style="rounded=1;whiteSpace=wrap;html=1;" vertex="1" parent="DM50Ut-zgRw8RZW4MAb7-3">
          <mxGeometry x="15" y="640" width="90" height="40" as="geometry" />
        </mxCell>
        <mxCell id="DM50Ut-zgRw8RZW4MAb7-46" value="显示发布失败" style="rounded=1;whiteSpace=wrap;html=1;" vertex="1" parent="DM50Ut-zgRw8RZW4MAb7-3">
          <mxGeometry x="15" y="720" width="90" height="40" as="geometry" />
        </mxCell>
        <mxCell id="DM50Ut-zgRw8RZW4MAb7-53" value="显示发布成功" style="rounded=1;whiteSpace=wrap;html=1;" vertex="1" parent="DM50Ut-zgRw8RZW4MAb7-3">
          <mxGeometry x="15" y="800" width="90" height="40" as="geometry" />
        </mxCell>
        <mxCell id="DM50Ut-zgRw8RZW4MAb7-4" value="后台服务器" style="swimlane;startSize=20;html=1;" vertex="1" parent="DM50Ut-zgRw8RZW4MAb7-1">
          <mxGeometry x="240" y="20" width="120" height="930" as="geometry" />
        </mxCell>
        <mxCell id="DM50Ut-zgRw8RZW4MAb7-38" value="验证数据及用户信息" style="rounded=1;whiteSpace=wrap;html=1;" vertex="1" parent="DM50Ut-zgRw8RZW4MAb7-4">
          <mxGeometry x="15" y="640" width="90" height="40" as="geometry" />
        </mxCell>
        <mxCell id="DM50Ut-zgRw8RZW4MAb7-43" value="" style="rhombus;whiteSpace=wrap;html=1;" vertex="1" parent="DM50Ut-zgRw8RZW4MAb7-4">
          <mxGeometry x="40" y="720" width="40" height="40" as="geometry" />
        </mxCell>
        <mxCell id="DM50Ut-zgRw8RZW4MAb7-44" value="" style="endArrow=classic;html=1;rounded=0;fontSize=8;exitX=0.5;exitY=1;exitDx=0;exitDy=0;entryX=0.5;entryY=0;entryDx=0;entryDy=0;" edge="1" parent="DM50Ut-zgRw8RZW4MAb7-4" source="DM50Ut-zgRw8RZW4MAb7-38" target="DM50Ut-zgRw8RZW4MAb7-43">
          <mxGeometry width="50" height="50" relative="1" as="geometry">
            <mxPoint x="70" y="750" as="sourcePoint" />
            <mxPoint x="120" y="700" as="targetPoint" />
          </mxGeometry>
        </mxCell>
        <mxCell id="DM50Ut-zgRw8RZW4MAb7-50" value="写入数据库" style="rounded=1;whiteSpace=wrap;html=1;" vertex="1" parent="DM50Ut-zgRw8RZW4MAb7-4">
          <mxGeometry x="15" y="800" width="90" height="40" as="geometry" />
        </mxCell>
        <mxCell id="DM50Ut-zgRw8RZW4MAb7-52" value="" style="endArrow=classic;html=1;rounded=0;fontSize=8;exitX=0.5;exitY=1;exitDx=0;exitDy=0;entryX=0.5;entryY=0;entryDx=0;entryDy=0;" edge="1" parent="DM50Ut-zgRw8RZW4MAb7-4" source="DM50Ut-zgRw8RZW4MAb7-43" target="DM50Ut-zgRw8RZW4MAb7-50">
          <mxGeometry width="50" height="50" relative="1" as="geometry">
            <mxPoint x="70" y="810" as="sourcePoint" />
            <mxPoint x="120" y="760" as="targetPoint" />
          </mxGeometry>
        </mxCell>
        <mxCell id="DM50Ut-zgRw8RZW4MAb7-34" value="" style="endArrow=classic;html=1;rounded=0;fontSize=8;exitX=0;exitY=0.5;exitDx=0;exitDy=0;" edge="1" parent="DM50Ut-zgRw8RZW4MAb7-1" source="DM50Ut-zgRw8RZW4MAb7-29">
          <mxGeometry width="50" height="50" relative="1" as="geometry">
            <mxPoint x="60" y="680" as="sourcePoint" />
            <mxPoint x="110" y="575" as="targetPoint" />
          </mxGeometry>
        </mxCell>
        <mxCell id="DM50Ut-zgRw8RZW4MAb7-39" value="" style="endArrow=classic;html=1;rounded=0;fontSize=8;exitX=1;exitY=0.5;exitDx=0;exitDy=0;entryX=0;entryY=0.5;entryDx=0;entryDy=0;" edge="1" parent="DM50Ut-zgRw8RZW4MAb7-1" source="DM50Ut-zgRw8RZW4MAb7-35" target="DM50Ut-zgRw8RZW4MAb7-36">
          <mxGeometry width="50" height="50" relative="1" as="geometry">
            <mxPoint x="100" y="720" as="sourcePoint" />
            <mxPoint x="150" y="670" as="targetPoint" />
          </mxGeometry>
        </mxCell>
        <mxCell id="DM50Ut-zgRw8RZW4MAb7-40" value="" style="endArrow=classic;html=1;rounded=0;fontSize=8;exitX=1;exitY=0.5;exitDx=0;exitDy=0;entryX=0;entryY=0.5;entryDx=0;entryDy=0;" edge="1" parent="DM50Ut-zgRw8RZW4MAb7-1" source="DM50Ut-zgRw8RZW4MAb7-36" target="DM50Ut-zgRw8RZW4MAb7-38">
          <mxGeometry width="50" height="50" relative="1" as="geometry">
            <mxPoint x="210" y="750" as="sourcePoint" />
            <mxPoint x="260" y="700" as="targetPoint" />
          </mxGeometry>
        </mxCell>
        <mxCell id="DM50Ut-zgRw8RZW4MAb7-42" value="" style="endArrow=classic;html=1;rounded=0;fontSize=8;exitX=1;exitY=0.5;exitDx=0;exitDy=0;entryX=0;entryY=0.5;entryDx=0;entryDy=0;" edge="1" parent="DM50Ut-zgRw8RZW4MAb7-1" source="DM50Ut-zgRw8RZW4MAb7-17" target="DM50Ut-zgRw8RZW4MAb7-19">
          <mxGeometry width="50" height="50" relative="1" as="geometry">
            <mxPoint x="-195.71067811865476" y="290" as="sourcePoint" />
            <mxPoint x="324.28932188134524" y="460" as="targetPoint" />
          </mxGeometry>
        </mxCell>
        <mxCell id="DM50Ut-zgRw8RZW4MAb7-47" value="" style="endArrow=classic;html=1;rounded=0;fontSize=8;exitX=0;exitY=0.5;exitDx=0;exitDy=0;" edge="1" parent="DM50Ut-zgRw8RZW4MAb7-1" source="DM50Ut-zgRw8RZW4MAb7-43" target="DM50Ut-zgRw8RZW4MAb7-46">
          <mxGeometry width="50" height="50" relative="1" as="geometry">
            <mxPoint x="230" y="790" as="sourcePoint" />
            <mxPoint x="280" y="740" as="targetPoint" />
          </mxGeometry>
        </mxCell>
        <mxCell id="DM50Ut-zgRw8RZW4MAb7-55" value="" style="endArrow=classic;html=1;rounded=0;fontSize=8;exitX=0;exitY=0.5;exitDx=0;exitDy=0;" edge="1" parent="DM50Ut-zgRw8RZW4MAb7-1" source="DM50Ut-zgRw8RZW4MAb7-50" target="DM50Ut-zgRw8RZW4MAb7-53">
          <mxGeometry width="50" height="50" relative="1" as="geometry">
            <mxPoint x="140" y="780" as="sourcePoint" />
            <mxPoint x="190" y="730" as="targetPoint" />
          </mxGeometry>
        </mxCell>
        <mxCell id="DM50Ut-zgRw8RZW4MAb7-57" value="" style="endArrow=classic;html=1;rounded=0;fontSize=8;exitX=0;exitY=0.5;exitDx=0;exitDy=0;entryX=1;entryY=0.5;entryDx=0;entryDy=0;" edge="1" parent="DM50Ut-zgRw8RZW4MAb7-1" source="DM50Ut-zgRw8RZW4MAb7-53" target="DM50Ut-zgRw8RZW4MAb7-54">
          <mxGeometry width="50" height="50" relative="1" as="geometry">
            <mxPoint x="140" y="780" as="sourcePoint" />
            <mxPoint x="120" y="840" as="targetPoint" />
          </mxGeometry>
        </mxCell>
        <mxCell id="DM50Ut-zgRw8RZW4MAb7-26" value="否" style="text;html=1;align=center;verticalAlign=middle;resizable=0;points=[];autosize=1;strokeColor=none;fillColor=none;" vertex="1" parent="1">
          <mxGeometry x="460" y="495" width="40" height="30" as="geometry" />
        </mxCell>
      </root>
    </mxGraphModel>
  </diagram>
</mxfile>
